<mxfile host="65bd71144e">
    <diagram id="LMwmhspk8BR_RTSeLU4_" name="Page-1">
        <mxGraphModel dx="650" dy="475" grid="1" gridSize="10" guides="1" tooltips="1" connect="1" arrows="1" fold="1" page="1" pageScale="1" pageWidth="850" pageHeight="1100" math="0" shadow="0">
            <root>
                <mxCell id="0"/>
                <mxCell id="1" parent="0"/>
                <mxCell id="2" value="" style="rounded=1;whiteSpace=wrap;html=1;glass=0;shadow=0;arcSize=8;gradientColor=#2b2b5e;gradientDirection=west;fillColor=#18141D;" vertex="1" parent="1">
                    <mxGeometry x="40" y="40" width="560" height="400" as="geometry"/>
                </mxCell>
                <mxCell id="3" value="" style="rounded=0;whiteSpace=wrap;html=1;shadow=0;glass=0;sketch=0;fillColor=#a20025;gradientDirection=west;fontColor=#ffffff;strokeColor=#6F0000;" vertex="1" parent="1">
                    <mxGeometry x="60" y="250" width="270" height="170" as="geometry"/>
                </mxCell>
            </root>
        </mxGraphModel>
    </diagram>
</mxfile>